<?xml version="1.0" encoding="utf-8"?>
<!-- Generator: Adobe Illustrator 23.1.0, SVG Export Plug-In . SVG Version: 6.00 Build 0)  -->
<svg version="1.1" id="Layer_1" xmlns="http://www.w3.org/2000/svg" xmlns:xlink="http://www.w3.org/1999/xlink" x="0px" y="0px"
	 viewBox="0 0 125 125" style="enable-background:new 0 0 125 125;" xml:space="preserve">
<style type="text/css">
	.st0{fill:#A8A8A8;}
</style>
<path class="st0" d="M125,62.5C125,97,97,125,62.5,125S0,97,0,62.5C0,39.4,12.6,19.2,31.2,8.4l5,8.7C20.6,26.1,10,43.1,10,62.5
	c0,29,23.5,52.5,52.5,52.5S115,91.5,115,62.5c0-19.2-10.4-36.1-25.8-45.2l5-8.7C112.6,19.5,125,39.5,125,62.5z"/>
<line class="st0" x1="63" y1="63.3" x2="62.8" y2="63"/>
<line class="st0" x1="62.8" y1="63" x2="62.6" y2="63.3"/>
</svg>
