<?xml version="1.0" encoding="utf-8"?>
<!-- Generator: Adobe Illustrator 23.1.0, SVG Export Plug-In . SVG Version: 6.00 Build 0)  -->
<svg version="1.1" id="Layer_1" xmlns="http://www.w3.org/2000/svg" xmlns:xlink="http://www.w3.org/1999/xlink" x="0px" y="0px"
	 viewBox="0 0 500 500" style="enable-background:new 0 0 500 500;" xml:space="preserve">
<style type="text/css">
	.st0{fill:none;stroke:#000000;stroke-width:6;}
</style>
<g>
	<path class="st0" d="M126.3,64.5c-37.1,123.7-37.1,247.3,0,371h247.3c37.1-123.7,37.1-247.3,0-371H126.3z"/>
	<g>
		<path d="M159.5,91.3c-6.9,25.7-11.8,52-15.3,78.5c-3.4,26.5-5.4,53.3-5.8,80.1c-0.5,26.8,0.5,53.7,3,80.5
			c2.5,26.7,6.6,53.4,12.6,79.6l-5.8,1.5c-7-26.3-12.1-53.1-15.6-80.1c-3.5-27-5.4-54.2-5.9-81.4c-0.5-27.2,0.5-54.5,3.1-81.8
			c2.6-27.2,6.7-54.3,12.9-81.1L159.5,91.3z"/>
	</g>
	<g>
		<path d="M196.3,90.3c-3.7,26.4-6.4,53-8.3,79.6c-1.9,26.7-3.1,53.4-3.5,80.1c-0.4,26.8-0.1,53.5,0.9,80.3
			c1.1,26.8,2.9,53.5,5.7,80.1l-6,0.7c-3.7-26.7-6.4-53.5-8.4-80.4c-1.9-26.9-3.1-53.8-3.5-80.8c-0.4-27-0.1-53.9,0.9-80.9
			c1.1-27,2.9-53.9,5.8-80.9L196.3,90.3z"/>
	</g>
	<g>
		<polygon points="232.3,89.2 228.3,410.8 222.3,410.8 218.2,89.2 		"/>
	</g>
	<g>
		<path d="M270,88.3c2.9,26.9,4.8,53.9,5.9,80.8c1.1,27,1.4,53.9,1.1,80.9c-0.4,27-1.5,53.9-3.4,80.8c-1.9,26.9-4.5,53.7-8.2,80.4
			l-6-0.7c2.9-26.6,4.8-53.3,5.9-80.1c1.1-26.8,1.4-53.5,1-80.3c-0.4-26.8-1.5-53.5-3.4-80.2c-1.9-26.7-4.5-53.3-8.2-79.7L270,88.3z
			"/>
	</g>
	<g>
		<path d="M306.6,87.4c6.3,26.7,10.5,53.8,13.2,80.9c2.7,27.2,3.8,54.4,3.4,81.6c-0.4,27.2-2.2,54.4-5.6,81.4
			c-3.4,27-8.3,53.8-15.2,80.1l-5.8-1.5c6.1-26.2,10.3-52.8,12.9-79.5c2.6-26.8,3.7-53.6,3.3-80.5c-0.4-26.9-2.2-53.7-5.5-80.3
			c-3.3-26.6-8.2-52.9-15-78.7L306.6,87.4z"/>
	</g>
	<g>
		<path d="M148.4,81.3c10.5-3.2,21.3-4.5,31.9-4.7c10.6-0.1,21,0.9,31.1,2.6c20.3,3.3,39.8,9,59,14.9c19.2,5.9,38.1,12.3,57.3,17.1
			c9.6,2.3,19.3,4.3,29,5c4.9,0.3,9.7,0.3,14.5-0.3c4.8-0.6,9.4-1.8,13.8-3.7l0,0c1-0.5,2.2,0,2.6,1c0.4,1,0,2.1-0.9,2.6
			c-2.3,1.2-4.8,2.2-7.3,3c-2.5,0.8-5,1.4-7.6,1.9c-5.1,0.9-10.3,1.2-15.4,1.1c-10.3-0.1-20.4-1.6-30.3-3.5
			c-19.9-3.8-39.3-9.3-58.6-14.1c-19.3-4.9-38.7-9.4-58.1-11.5c-9.7-1-19.3-1.5-28.8-0.9c-9.4,0.6-18.6,2.3-27.1,5.4
			c-4.4,1.6-9.2-0.6-10.8-5s0.6-9.2,5-10.8C148.1,81.4,148.2,81.3,148.4,81.3L148.4,81.3z"/>
	</g>
	<g>
		<path d="M138.7,128.6c11-3.3,22.3-4.5,33.3-4.4c11,0.1,21.8,1.3,32.3,3.1c21.1,3.7,41.3,9.6,61.3,15.8c20,6.2,39.7,12.8,59.7,17.9
			c10,2.5,20.1,4.6,30.4,5.5c5.1,0.4,10.2,0.5,15.3,0c2.5-0.2,5-0.7,7.5-1.3c2.5-0.6,4.9-1.5,7.2-2.5l0,0c0.5-0.2,1.1,0,1.3,0.5
			c0.2,0.5,0,1.1-0.5,1.3c-2.4,1.2-4.9,2.3-7.4,3.1c-2.6,0.8-5.2,1.4-7.8,1.8c-5.3,0.9-10.6,1.1-15.9,1c-10.6-0.2-21.1-1.8-31.4-3.7
			c-20.7-3.9-40.9-9.4-61.1-14.3c-20.2-4.9-40.4-9.5-60.6-11.8c-10.1-1.1-20.2-1.6-30-1.1c-9.8,0.6-19.5,2.2-28.2,5.5
			c-4.4,1.6-9.3-0.6-11-5c-1.6-4.4,0.6-9.3,5-11C138.3,128.7,138.5,128.6,138.7,128.6L138.7,128.6z"/>
	</g>
</g>
</svg>
