<?xml version="1.0" encoding="utf-8"?>
<!-- Generator: Adobe Illustrator 23.1.0, SVG Export Plug-In . SVG Version: 6.00 Build 0)  -->
<svg version="1.1" id="Layer_1" xmlns="http://www.w3.org/2000/svg" xmlns:xlink="http://www.w3.org/1999/xlink" x="0px" y="0px"
	 viewBox="0 0 64 64" style="enable-background:new 0 0 64 64;" xml:space="preserve">
<style type="text/css">
	.st0{font-family:'Arial-BoldMT';}
	.st1{font-size:5.031393e-02px;}
</style>
<g>
	<path d="M51.4,54.9c0.1,0.2,0.1,0.4-0.1,0.5c-0.2,0.1-0.4,0.1-0.5-0.1c-1.2-1.6-2.6-3-4.2-4c-1.6-1.1-3.4-1.9-5.6-2.4
		c-1.5-0.4-3.1-0.5-4.7-0.5c0,0,0,0-0.1,0c-0.9,0-1.8,0-2.8,0.1c-0.7,0-1.4,0-2.2,0.1l0,0c-0.6,0-1.1,0-1.6,0.1
		c-3.4,0.1-5.5,0.2-9.2,0.7c-0.5,0.1-0.8,0.1-1.1,0c-0.3-0.1-0.5-0.2-0.9-0.4c-2-1.3-4.1-2.7-6.1-4c-0.9-0.6-1.8-1.1-2.7-1.7
		c-0.6-0.4-1.4-0.7-2.2-1.1c-0.5-0.2-1-0.4-1.4-0.6c-0.1,0-0.2-0.1-0.2-0.1c-0.1-0.1-0.3-0.2-0.3-0.4c-0.1-0.2-0.1-0.4,0-0.6
		c0,0,0-0.1,0.1-0.1C5.6,40,6,39.8,6.3,39.8c0.3,0,0.6,0,0.9,0l0,0c0.7-0.6,1.5-0.8,2.4-0.7c0.9,0.1,1.8,0.4,3,1
		c0.6,0.3,1.3,0.7,2.1,1.2c0.8,0.4,1.6,0.9,2.3,1.4l0.3,0.2c0.6,0.3,1,0.7,1.4,1c0.2,0.1,0.1,0.1,0.2,0.1c0.8,0.5,1.4,0.8,2.3,0.7
		l0.3,0c-1.2-0.8-2.4-1.6-4.2-2.5c-0.5-0.2-0.7-0.4-0.9-0.6c-0.2-0.2-0.3-0.5-0.4-0.9c-0.8-2.1-1.6-4.5-2.5-6.9c-0.4-1-0.7-2-1.1-3
		c-0.3-0.7-0.7-1.4-1.2-2.2c-0.3-0.4-0.5-0.9-0.8-1.4c0-0.1-0.1-0.2-0.1-0.3c-0.1-0.2-0.1-0.3,0-0.5c0-0.2,0.2-0.4,0.4-0.5
		c0,0,0.1,0,0.1-0.1c0.4-0.1,0.8-0.1,1.1,0.1c0.3,0.1,0.5,0.3,0.7,0.5l0,0c0.9,0,1.6,0.3,2.3,0.9c0.6,0.6,1.2,1.5,1.8,2.6
		c0.3,0.6,0.7,1.4,1,2.2c0.3,0.8,0.7,1.7,1,2.5c0,0,0.1,0.1,0.1,0.3c0.1,0.3,0.2,0.6,0.3,0.9c0.1,0,0.1,0,0.2,0.1l1.1,0.9
		c-0.4-2.1-0.7-4.2-1.1-6.3c-0.2-1-0.4-2.1-0.6-3.1c-0.1-0.7-0.4-1.5-0.8-2.4c-0.2-0.5-0.4-1-0.5-1.5c0-0.1-0.1-0.2-0.1-0.3
		c0-0.2,0-0.3,0-0.5c0.1-0.2,0.2-0.3,0.5-0.4c0.1,0,0.1,0,0.2,0c0.4-0.1,0.8,0.1,1,0.3c0.2,0.2,0.4,0.4,0.5,0.7l0,0
		c0.9,0.1,1.6,0.6,2.1,1.3c0.5,0.7,0.9,1.7,1.3,2.8c0.2,0.6,0.4,1.5,0.6,2.3c0,0,0,0.1,0,0.1c0,0,0,0,0,0c0.2,0.9,1.1,2.2,2.3,3.2
		c0.9,0.7,2,1.3,3,1.3c-0.2-1.2-0.4-2.4-0.6-3.7c-0.2-1-0.3-1.9-0.5-2.9c-0.1-0.7-0.4-1.4-0.7-2.2c-0.2-0.5-0.4-0.9-0.5-1.4
		c0-0.1,0-0.2-0.1-0.3c0-0.2,0-0.3,0-0.5c0.1-0.2,0.2-0.3,0.4-0.4c0,0,0.1,0,0.2,0c0.4-0.1,0.7,0.1,1,0.3c0.2,0.2,0.4,0.4,0.5,0.6
		c0.8,0.1,1.4,0.5,2,1.2c0-0.1,0.1-0.3,0.1-0.4c0.2-0.4,0.5-0.8,1-1l1.7-0.6L33,22.4c-0.3,0-0.6,0-0.8-0.2c-0.4-0.2-0.7-0.5-0.9-1
		L27.6,12c-0.2-0.4-0.2-0.9,0-1.3c0.2-0.4,0.5-0.8,0.9-0.9l2.8-1.1c0.4-0.2,0.9-0.1,1.3,0c0.4,0.2,0.7,0.5,0.9,1
		c1.2,3.1,2.4,6.2,3.6,9.3c0.2,0.4,0.2,0.9,0,1.3c-0.1,0.2-0.2,0.4-0.4,0.6l0.3,0.9l1.6-0.6c0.5-0.2,1-0.2,1.4,0
		c0.4,0.2,0.8,0.5,1,1l4.2,10.7c0.2,0.5,0.2,1,0,1.4c-0.1,0.2-0.2,0.4-0.3,0.5c2.7,0.7,5.2,2.3,7.4,4.2c2.4,2,4.5,4.5,6.3,6.8
		c0.1,0.2,0.1,0.4-0.1,0.5c-0.2,0.1-0.4,0.1-0.5-0.1c-1.9-2.3-3.9-4.7-6.3-6.7c-2.3-2-4.8-3.5-7.6-4.2c-0.1,0-0.1,0-0.2-0.1l-7,2.7
		l0,0c0,0,0,0,0,0c-0.5,0.2-1,0.1-1.4,0c-0.4-0.2-0.8-0.5-1-1l0,0c0,0,0,0,0,0l-0.8-2c-0.1,0-0.3,0-0.4,0c-0.1,0-0.1,0-0.2,0
		l0.9,2.7l0,0c0.2,0.6,0.4,1,0.4,1.4c0.5,0,1.1,0.2,1.6,0.5c0.7,0.4,1.3,0.9,1.7,1.6c0.1,0.2,0,0.4-0.1,0.5c-0.2,0.1-0.4,0-0.5-0.1
		c-0.3-0.5-0.8-1-1.4-1.3c-0.5-0.3-1-0.4-1.4-0.4c-0.1,0.3-0.2,0.6-0.4,1c-0.1,0.2-0.3,0.3-0.5,0.2s-0.3-0.3-0.2-0.5
		c0.3-0.6,0.4-1,0.4-1.3c0-0.3-0.1-0.7-0.3-1.3l0,0l-0.7-2.1c0,0.1-0.1,0.2-0.1,0.2c-0.1,0.2-0.3,0.2-0.5,0.1
		c-0.2-0.1-0.2-0.3-0.1-0.5c0.4-0.8,0.3-1.6,0-2.6c0-0.1,0-0.1-0.1-0.3c-0.2-0.8-0.3-1.6-0.5-2.4c-0.2-0.8-0.4-1.6-0.5-2.1
		c-0.3-1-0.7-1.9-1.1-2.4c-0.3-0.4-0.6-0.7-1-0.8c0.2,0.4,0.4,1,0.4,1.4c0.1,0.7-0.1,1.3-1,1.5c0.2,0.9,0.3,1.9,0.5,2.8
		c0.4,2.2,0.8,4.5,1.2,6.7c0.1,0.4,0.8,3.1,1.4,5.1c0.1,0.2,0.1,0.4,0.2,0.6c0,0.1,0.1,0.1,0.1,0.2c0,0,0,0,0,0
		c0.3,0.7,0.5,1.2,0.6,1.3c0.2,0.1,0.2,0.3,0.1,0.5c-0.1,0.2-0.3,0.2-0.5,0.1c-0.2-0.2-0.5-0.8-0.9-1.7c0,0,0,0,0,0c0,0,0,0,0-0.1
		l0-0.1c-0.6-1.6-2-2.7-3.2-3.6c-0.4-0.3-0.7-0.6-1-0.8L25,37.3c-0.5-0.4-0.8-0.9-1-1.4c0,0,0,0.1-0.1,0.1c-0.1,0.2-0.3,0.2-0.5,0.1
		s-0.2-0.3-0.1-0.5c0.5-0.8,0.3-1.7,0.1-2.9c0-0.1,0-0.1-0.1-0.3c-0.1-0.8-0.3-1.6-0.5-2.4c0,0,0,0,0-0.1c0,0,0,0,0,0
		c0,0,0-0.1,0-0.1c-0.2-0.9-0.4-1.7-0.6-2.3c-0.3-1.1-0.7-2-1.2-2.6c-0.3-0.4-0.7-0.7-1.2-0.9c0.2,0.5,0.4,1.1,0.5,1.6
		c0.1,0.8-0.1,1.4-1,1.6c0.2,1,0.4,2,0.5,3c0.4,2.4,0.8,4.8,1.3,7.2c0.1,0.3,0.1,0.5,0.2,0.7c0.1,0.2,0.3,0.3,0.6,0.6
		c2.6,2.1,4,3.5,5.9,5.4c0.6,0.6,1.2,1.2,2,2c0.3,0.3,0.5,0.4,0.8,0.5c0.3,0.1,0.6,0.2,1.1,0.3c0.8,0.2,2,0.3,3.1,0.4
		c0.6,0.1,1.2,0.1,1.6,0.2c1.7,0,3.3,0.1,4.9,0.5c2.2,0.5,4.1,1.4,5.8,2.5C48.6,51.8,50.1,53.2,51.4,54.9L51.4,54.9z M32.2,11.1
		c0-0.1,0-0.2,0.1-0.3c0.1,0,0.2,0,0.3,0.1l1.1,2.9c0,0.1,0,0.2-0.1,0.3c-0.1,0-0.2,0-0.3-0.1L32.2,11.1z M34,23l2.5-1l-0.3-0.8
		l-2.5,1L34,23z M31.6,9.3l-2.8,1.1c-0.3,0.1-0.4,0.3-0.5,0.5c-0.1,0.2-0.1,0.5,0,0.8l3.6,9.3c0.1,0.3,0.3,0.5,0.5,0.6
		c0.2,0.1,0.5,0.1,0.8,0l2.8-1.1c0.3-0.1,0.4-0.3,0.5-0.5c0.1-0.2,0.1-0.5,0-0.8L33,9.9c0,0,0,0,0-0.1c-0.1-0.3-0.3-0.4-0.5-0.6
		C32.2,9.2,31.9,9.2,31.6,9.3C31.7,9.3,31.7,9.3,31.6,9.3L31.6,9.3z M39.9,21.8l2.4,9.2c0.5,1.9-0.7,2.4-2.5,3.2l0,0c0,0,0,0,0,0
		l0,0c-1.9,0.6-3.1,1.1-4-0.7l-4.4-8.4c-0.1,0.3-0.1,0.6,0,0.8l4.2,10.7l0,0l0,0l0,0c0.1,0.3,0.3,0.5,0.6,0.6c0.3,0.1,0.5,0.1,0.8,0
		l0,0l0,0c2.4-0.9,4.7-1.8,7.1-2.8c0.3-0.1,0.5-0.3,0.6-0.6c0.1-0.3,0.1-0.6,0-0.8c-1.5-3.5-2.8-7.2-4.2-10.7
		C40.3,22.2,40.1,22,39.9,21.8L39.9,21.8z M31.6,24.7l4.5,8.6c0.7,1.4,1.8,1.1,3.5,0.5l0,0l0,0c1.6-0.7,2.6-1.2,2.2-2.7l-2.5-9.4
		c-0.1,0-0.3,0-0.4,0.1l0,0l-7.1,2.8C31.8,24.6,31.7,24.6,31.6,24.7L31.6,24.7z M32.5,31.1c0.1,0.5,0.2,1,0.3,1.4c0,0,0,0.2,0.1,0.3
		c0.1,0.5,0.2,0.9,0.2,1.3l0,0.1c0.1,0,0.3,0,0.4,0c0.1,0,0.1,0,0.2,0L32.5,31.1L32.5,31.1z M46.5,38c-0.1,0-0.2-0.2-0.1-0.3
		c0-0.1,0.2-0.2,0.3-0.1c0.7,0.3,1.3,0.6,1.9,1c0.2,0.1,0.3,0.2,0.5,0.3c0.1,0.1,0.1,0.2,0.1,0.3c-0.1,0.1-0.2,0.1-0.3,0.1
		c-0.2-0.1-0.3-0.2-0.5-0.3C47.7,38.6,47.2,38.3,46.5,38L46.5,38z M19.5,45.1c0,0,0,0.1,0,0.1c0.1,0.2,0,0.4-0.2,0.5
		c-0.2,0.1-0.4,0-0.5-0.2c-0.3-0.9-1-1.4-2-2c0,0-0.1,0-0.3-0.2c-0.7-0.4-1.5-0.9-2.3-1.4c-0.8-0.4-1.5-0.9-2.1-1.1
		c-1.1-0.5-2-0.8-2.7-0.9c-0.5-0.1-1,0-1.5,0.2c0.5,0.2,1.1,0.4,1.5,0.7c0.6,0.5,1,1.1,0.5,1.9c0.9,0.6,1.7,1.1,2.6,1.7
		c2,1.3,4.1,2.7,6.1,4c0.3,0.2,0.5,0.3,0.6,0.3c0.2,0,0.4,0,0.8,0c2.4-0.4,4.2-0.5,6.1-0.6c0,0-0.1,0-0.1-0.1
		c-0.9-0.6-1.6-1.1-2.3-1.6c-0.6-0.4-1.1-0.8-1.6-1.1c0,0,0,0,0,0l-1.1,0.1C20.5,45.4,20,45.3,19.5,45.1L19.5,45.1z M31.2,47.8
		C31.2,47.8,31.2,47.8,31.2,47.8c0.2,0,0.3,0,0.5,0c-0.1,0-0.1,0-0.2,0c-0.5-0.1-0.9-0.2-1.2-0.3c-0.4-0.2-0.7-0.4-1-0.7
		c-0.7-0.7-1.4-1.4-2-2c-1.9-1.9-3.2-3.3-5.8-5.3c-0.4-0.3-0.6-0.5-0.8-0.8c-0.2-0.3-0.2-0.5-0.3-0.9l0,0c-0.1,0-0.2,0-0.3-0.1
		L19.3,37c0.1,0.4,0,0.9-0.1,1.4c-0.1,0.2-0.3,0.3-0.5,0.2c-0.2-0.1-0.3-0.3-0.2-0.5c0.3-0.9,0-1.7-0.4-2.8c0,0,0-0.1-0.1-0.3
		c-0.3-0.8-0.6-1.6-1-2.5c-0.3-0.8-0.7-1.6-1-2.1c-0.5-1-1.1-1.8-1.6-2.4c-0.4-0.4-0.8-0.6-1.3-0.7c0.3,0.4,0.6,1,0.8,1.5
		c0.2,0.7,0.1,1.4-0.7,1.8c0.4,1,0.7,1.9,1.1,2.9c0.8,2.2,1.6,4.4,2.5,6.9c0.1,0.3,0.2,0.5,0.3,0.6c0.1,0.1,0.3,0.3,0.7,0.5
		c2.9,1.6,4.5,2.7,6.7,4.3c0.7,0.5,1.4,1,2.3,1.6c0.3,0.2,0.6,0.3,0.9,0.4c0.3,0.1,0.7,0.1,1.1,0.1C29.5,47.9,30.3,47.9,31.2,47.8
		L31.2,47.8L31.2,47.8z M7.6,41.5c0.6,0.3,1.2,0.5,1.8,0.8c0.2-0.4,0-0.7-0.3-0.9c-0.4-0.3-1-0.5-1.5-0.7c-0.2-0.1-0.3-0.1-0.4-0.1
		c-0.2-0.1-0.6-0.2-0.9-0.1c-0.2,0-0.4,0.1-0.5,0.3c0,0,0,0,0,0c0,0,0,0,0,0c0,0,0.1,0.1,0.1,0.1c0,0,0.1,0.1,0.1,0.1
		C6.6,41.1,7.1,41.3,7.6,41.5L7.6,41.5z M24,32.3l0,0.1c0,0,0,0.2,0.1,0.3c0.1,0.6,0.2,1.2,0.2,1.7l0,0.2c0.2,0.9,0.4,1.5,1.1,2.1
		l1.9,1.6c0.3,0.3,0.7,0.5,1,0.8c0.7,0.5,1.4,1,2,1.7c-0.5-1.6-0.8-3-0.9-3.4c-0.1-0.8-0.3-1.6-0.4-2.3c-1.3,0-2.5-0.6-3.6-1.5
		C24.9,33.3,24.4,32.8,24,32.3L24,32.3z M27.7,25.4c0.2,0.6,0.4,1.2,0.6,1.7c0.4-0.1,0.4-0.4,0.4-0.7c-0.1-0.4-0.3-1-0.5-1.4
		c0-0.1-0.1-0.2-0.1-0.3c-0.1-0.2-0.2-0.5-0.5-0.6c-0.1-0.1-0.3-0.2-0.4-0.1c0,0,0,0,0,0c0,0,0,0.1,0,0.1c0,0,0,0.1,0,0.1
		C27.3,24.6,27.5,25,27.7,25.4z M18.5,24.8c0.2,0.6,0.5,1.3,0.6,1.9c0.4-0.1,0.5-0.5,0.5-0.8c-0.1-0.5-0.3-1.1-0.5-1.5
		C19.1,24.2,19,24.1,19,24c-0.1-0.2-0.3-0.5-0.5-0.7c-0.1-0.1-0.3-0.2-0.5-0.2c0,0,0,0,0,0c0,0,0,0,0,0c0,0,0,0.1,0,0.1
		c0,0.1,0,0.1,0,0.2C18.1,23.9,18.3,24.3,18.5,24.8L18.5,24.8z M11.8,28.2c0.3,0.6,0.7,1.2,1,1.7c0.4-0.2,0.4-0.5,0.3-0.9
		c-0.1-0.5-0.5-1-0.8-1.4c-0.1-0.1-0.2-0.2-0.2-0.3c-0.1-0.2-0.4-0.5-0.6-0.6c-0.2-0.1-0.3-0.1-0.5-0.1c0,0,0,0,0,0c0,0,0,0,0,0
		c0,0,0,0.1,0,0.1c0,0,0,0.1,0.1,0.1C11.3,27.3,11.5,27.8,11.8,28.2L11.8,28.2z"/>
</g>
<text transform="matrix(1 0 0 1 31.2856 32.0122)" class="st0 st1">Created by Olena Panasovska</text>
<text transform="matrix(1 0 0 1 31.4751 32.0122)" class="st0 st1">from the Noun Project</text>
</svg>
