<?xml version="1.0" encoding="utf-8"?>
<!-- Generator: Adobe Illustrator 23.1.0, SVG Export Plug-In . SVG Version: 6.00 Build 0)  -->
<svg version="1.1" id="Layer_1" xmlns="http://www.w3.org/2000/svg" xmlns:xlink="http://www.w3.org/1999/xlink" x="0px" y="0px"
	 viewBox="0 0 500 500" style="enable-background:new 0 0 500 500;" xml:space="preserve">
<style type="text/css">
	.st0{fill:none;stroke:#000000;stroke-width:6;}
	.st1{fill:#020202;stroke:#000000;stroke-width:5;stroke-miterlimit:10;}
	.st2{stroke:#000000;stroke-width:5;stroke-miterlimit:10;}
</style>
<g>
	<g>
		<path class="st0" d="M126.9,77.7C90,200.8,90,323.8,126.9,446.9h246.1c36.9-123.1,36.9-246.1,0-369.2H126.9z"/>
		<g>
			<polygon points="124.8,260.2 146.1,232.3 153.7,222.5 158.4,234.3 178.8,285.6 173.5,285.6 193.1,233.8 200.8,213.6 208.5,233.8 
				228.1,285.6 222.7,285.6 243.2,234.3 250,217.4 256.8,234.3 277.3,285.6 271.9,285.6 293.2,234.7 299.2,220.3 305.2,234.7 
				326.5,285.6 321.2,285.6 341.1,234 346.2,220.8 354.3,231.9 375.2,260.2 371,264.4 342.6,243.5 355.8,241.4 326.5,288.3 
				323.8,292.7 321.2,288.3 293.2,240.7 305.2,240.7 277.3,288.3 274.7,292.8 271.9,288.3 243.2,241.1 256.8,241.1 228.1,288.3 
				225.4,292.6 222.7,288.3 193.1,241.5 208.5,241.5 178.8,288.3 176.1,292.6 173.5,288.3 144.7,241.1 156.9,243.1 129,264.4 			"/>
		</g>
	</g>
	<polygon class="st1" points="299.2,200.8 291,225.4 262.3,225.4 265.8,200.8 	"/>
	<polygon class="st1" points="265.8,200.8 237.7,200.8 286.9,53.1 	"/>
	<polygon class="st2" points="323.8,225.4 225.4,422.3 291,225.4 	"/>
</g>
</svg>
