<?xml version="1.0" encoding="utf-8"?>
<!-- Generator: Adobe Illustrator 23.1.0, SVG Export Plug-In . SVG Version: 6.00 Build 0)  -->
<svg version="1.1" id="Layer_1" xmlns="http://www.w3.org/2000/svg" xmlns:xlink="http://www.w3.org/1999/xlink" x="0px" y="0px"
	 viewBox="0 0 128 128" style="enable-background:new 0 0 128 128;" xml:space="preserve">
<path d="M108.8,97.5c-7.5,6.2-16.3,7.7-25.7,6.6c-7.3-0.8-13.9-3.9-19.9-8c-6.1-4.2-12.1-8.6-18.2-12.8c-2.2-1.5-4.7-2.7-7.3-3.5
	c-6.4-2.1-12.1,0.2-15.3,6.1c-1.1,2-2.4,2.8-4.6,2.7c-1.7-0.1-3.5,0-5.2,0c-3.8,0-4.5-1-2.9-4.4c6.8-15.2,25.4-20.7,39.6-11.7
	c3.3,2.1,6.2,4.6,9.4,6.9c4.4,3.1,8.7,6.3,13.3,9c6.2,3.7,12.9,5.9,20.3,4.9c7.4-1,13.7-6.3,15.3-12.8c2.1-8.7-0.7-17.5-7.2-21.8
	c-5.3-3.6-11.1-4-16.7-1c-5.8,3.1-8.9,8.2-9.1,14.9c0,1.6,0.1,3.2-0.1,4.8c-0.2,1.9-1.2,2.4-2.8,1.5c-2.4-1.4-4.7-2.9-6.9-4.6
	c-0.7-0.5-1.2-1.7-1.2-2.6c-0.1-15,0-30,0-44.9c0-2.4,0.5-2.9,3-2.9c1.4,0,2.7,0,4.1,0c3.2,0.1,3.9,0.6,4,3.8
	c0.1,5.8,0.1,11.6,0.1,17.4c0,1.4,0,2.8,0,4.8c1.2-0.6,1.9-0.8,2.5-1.2c14.6-9.5,36.8-2,41.2,18.8C120.7,78.9,118.4,89.5,108.8,97.5
	z"/>
</svg>
