<?xml version="1.0" encoding="utf-8"?>
<!-- Generator: Adobe Illustrator 23.1.0, SVG Export Plug-In . SVG Version: 6.00 Build 0)  -->
<svg version="1.1" id="Layer_1" xmlns="http://www.w3.org/2000/svg" xmlns:xlink="http://www.w3.org/1999/xlink" x="0px" y="0px"
	 viewBox="0 0 128 128" style="enable-background:new 0 0 128 128;" xml:space="preserve">
<g>
	<path d="M110.6,43.1c0-14.1-11.5-25.6-25.7-25.7c-7,0-13.9,0-20.9,0H43.7c-15.1,0-26.3,11.3-26.3,26.4c0,13.5,0,27,0,40.5
		c0,14.9,11.4,26.2,26.2,26.2c13.7,0,27.3,0,41,0c14.4,0,25.9-11.5,25.9-25.9C110.6,70.8,110.6,57,110.6,43.1z M103.8,84.2
		c0,11.3-8.3,19.5-19.5,19.6c-13.6,0-27.2,0-40.7,0c-11,0-19.3-8.3-19.4-19.3c0-13.7,0-27.3,0-41c0-10.9,8.4-19.2,19.3-19.2
		c13.7,0,27.3,0,41,0c10.9,0,19.2,8.3,19.3,19.2c0,6.9,0,13.8,0,20.6C103.8,70.8,103.8,77.5,103.8,84.2z"/>
	<path d="M64.1,42.2C50.6,42.4,39.7,53.4,39.9,67C40,80.3,51.1,91.2,64.4,91.1C78.1,91,88.9,80,88.7,66.4
		C88.6,53,77.5,42.1,64.1,42.2z M64,84.3c-9.7-0.1-17.4-8.1-17.3-17.8c0.1-9.8,8-17.5,17.8-17.4c9.8,0.1,17.6,8.2,17.4,18
		C81.8,76.7,73.7,84.4,64,84.3z"/>
	<path d="M94.1,38.5c0,2.4-2,4.4-4.4,4.4c-2.4,0-4.5-2-4.5-4.5c0-2.4,1.9-4.4,4.4-4.4C92.1,34,94,36,94.1,38.5z"/>
</g>
</svg>
