<?xml version="1.0" encoding="utf-8"?>
<!-- Generator: Adobe Illustrator 23.1.0, SVG Export Plug-In . SVG Version: 6.00 Build 0)  -->
<svg version="1.1" id="Layer_1" xmlns="http://www.w3.org/2000/svg" xmlns:xlink="http://www.w3.org/1999/xlink" x="0px" y="0px"
	 viewBox="0 0 40 40" style="enable-background:new 0 0 40 40;" xml:space="preserve">
<style type="text/css">
	.st0{fill:#A8A8A8;}
</style>
<path class="st0" d="M29.3,30.7l-20-20c-0.4-0.4-0.4-1,0-1.4l0,0c0.4-0.4,1-0.4,1.4,0l20,20c0.4,0.4,0.4,1,0,1.4l0,0
	C30.3,31.1,29.7,31.1,29.3,30.7z"/>
<path class="st0" d="M10.7,30.7l20-20c0.4-0.4,0.4-1,0-1.4l0,0c-0.4-0.4-1-0.4-1.4,0l-20,20c-0.4,0.4-0.4,1,0,1.4l0,0
	C9.7,31.1,10.3,31.1,10.7,30.7z"/>
</svg>
