<?xml version="1.0" encoding="utf-8"?>
<!-- Generator: Adobe Illustrator 23.1.0, SVG Export Plug-In . SVG Version: 6.00 Build 0)  -->
<svg version="1.1" id="Layer_1" xmlns="http://www.w3.org/2000/svg" xmlns:xlink="http://www.w3.org/1999/xlink" x="0px" y="0px"
	 viewBox="0 0 365 365" style="enable-background:new 0 0 365 365;" xml:space="preserve">
<g>
	<path d="M19.4,149.6c-0.7-0.4-1.2-0.7-1.7-1c-4.1-2.6-4.6-4.4-2.6-8.7c0.8-1.8,1.4-3.8,2.3-6c-2.4-0.6-4.4-1.1-6.4-1.7
		c-5.8-1.7-7.3-5.2-4.3-10.5c2-3.5,4.5-6.6,6.6-10.1c1.9-3.2,3.6-6.6,5.3-9.9c2.3-4.5,1.9-9.3,1.5-14.1
		c-2.6-29.9,14.9-58.6,46.3-66.5c19-4.8,37.2-3.5,54.2,7c15.9,9.8,25.2,24.3,28.5,42.4c3.9,21.2-0.4,41-11.4,59.5
		c-3.3,5.6-6.3,11.5-9.7,17.2c-3,5-3.7,10.6-4,16.2c-0.7,13.4,4.2,25.2,10.1,36.8c1.5,2.9,1.1,4.3-2.1,5.3
		c-25.7,8.5-51.4,17.1-77.1,25.6c-0.6,0.2-1.3,0.4-2,0.5c-2.3,0.4-3.7-0.8-3.4-3.1c0.2-1.6,0.7-3.4,1.4-4.8c3.2-6.3,7-12.3,8.6-19.3
		c1.8-7.8,1.3-15.4-1.3-22.9c-0.6-1.7-1.4-2.5-3.6-2.3c-5.7,0.6-11.4,0.9-17.1,1.1c-2,0.1-4.1-0.2-6.1-0.6c-4.6-0.8-7.5-3.7-8.5-8.2
		c-0.7-3.2-0.9-6.6-1.1-9.9c-0.1-1.7-0.5-2.8-1.9-3.8C16.2,155.3,16.1,152.9,19.4,149.6z"/>
	<path d="M199.4,42.4c0,3.3-0.2,6.4,0,9.5c0.4,7.2,7.2,13.5,14.3,13.4c8-0.1,14.3-6.1,14.5-14c0.1-2.9,0-5.8,0-8.9
		c18.1,0,36.1,0,54.5,0c0,3-0.1,5.9,0,8.9c0.2,6.6,4.8,12.1,11,13.4c6.6,1.4,13.7-1.8,16.3-7.7c0.8-1.8,1.2-3.9,1.3-5.9
		c0.2-2.8,0.1-5.6,0.1-9.2c4.5,0.5,8.9,0.5,13,1.6c5.2,1.3,8.1,6,8.1,11.4c0.1,29.3,0.1,58.6,0.1,87.8c0,0.9,0,1.9-0.2,2.8
		c-0.6,2.2-2.1,3.5-4.5,3.5c-2.3-0.1-3.9-1.2-4.3-3.6c-0.2-0.9-0.2-1.9-0.2-2.8c0-20.8,0-41.6,0-62.4c0-0.8-0.1-1.5-0.1-2.4
		c-45.2,0-90.3,0-135.8,0c0,1.4,0,2.9,0,4.4c0,30,0,59.9,0,89.9c0,5.8,2.6,8.7,8.5,8.8c9.8,0.2,19.5,0.1,29.3,0.2
		c1.5,0,3.1,0,4.6,0.2c2.6,0.3,4.4,2.4,4.4,4.8c-0.1,2.6-2.1,5-4.5,5c-12.1,0.1-24.2,0.3-36.2-0.1c-9.8-0.4-16-7.7-16.1-18
		c-0.1-10.7,0-21.4,0-32.1c0-27.7,0-55.3,0-83c0-8.3,4.4-14.5,11.5-15.5C192.4,42,195.7,42.4,199.4,42.4z"/>
	<path d="M338.8,168.6c2.3-2.6,4.6-5.1,6.9-7.6c1.8-2,4-2.6,6.5-1.7c2.5,0.9,3.6,2.8,3.5,5.8c-0.1,7.7-0.3,15.4-0.5,23.1
		c-0.1,3.2-2.4,5.6-5.5,5.5c-7.3-0.2-14.5-0.5-21.8-1.1c-4.9-0.4-7-5.8-4-9.8c1.7-2.2,3.7-4.2,5.6-6.5c-6.6-5.5-14-9.3-22.4-10.6
		c-24.4-4-46.6,9.8-54.1,33.2c-8.2,25.7,7.5,54,34.1,61.1c27.2,7.3,55.8-11.1,60.3-38.9c0.5-2.9,0.5-5.8,0.6-8.7
		c0.2-4.1,2.4-6.3,6.2-6.3c3.5,0.1,5.6,2.4,5.6,6.5c0.5,28.9-21.3,54.9-49.5,60c-31.7,5.7-63.7-15-70-47.5
		c-4.2-21.6,1.7-40.5,17.7-55.8c13.2-12.6,29.2-17.7,47.2-16C318,154.6,329.2,159.8,338.8,168.6z"/>
	<path d="M293.3,221.8c7.7-7.3,15.4-14.6,23-22c2.7-2.6,6.3-3.1,8.9-0.8c2.5,2.2,2.7,6.3,0.2,8.9c-8.9,9.2-17.9,18.3-27,27.4
		c-2.7,2.7-6.3,2.8-9.2,0c-5.4-5.2-10.7-10.5-16-15.9c-2.5-2.6-2.5-6.1-0.2-8.5c2.2-2.4,6-2.6,8.8-0.1c3.3,3,6.4,6.2,9.5,9.3
		c0.8,0.8,1.5,1.6,2.3,2.4C293.5,222.3,293.4,222.1,293.3,221.8z"/>
	<path d="M222.5,42.6c0,2.6,0.1,5.3,0,7.9c-0.1,3.4-1.6,6.1-4.8,7.6c-3.2,1.5-6.3,1.3-9.2-0.7c-2.2-1.5-3.5-3.5-3.5-6.2
		c0-5.6,0-11.3,0-16.9c0-3.5,2.2-6.4,5.6-7.5c3.5-1.2,6.6,0,9.2,2.2c2.3,2,2.6,4.4,2.6,7C222.5,38.3,222.6,40.5,222.5,42.6
		C222.5,42.6,222.5,42.6,222.5,42.6z"/>
	<path d="M305.5,42.3c0,3.2,0.3,6.4-0.1,9.5c-0.6,4.4-4.3,7.1-8.7,7c-4.5-0.1-7.6-2.8-7.9-7.5c-0.3-5.5-0.5-11.1-0.3-16.7
		c0.2-5.3,3.9-8.1,9.3-7.9c4.7,0.2,7.8,3.6,7.8,8.6c0,2.3,0,4.6,0,6.9C305.7,42.3,305.6,42.3,305.5,42.3z"/>
	<path d="M262.5,90.8c5.6,0,10.9,0,16.5,0c0,5.5,0,10.9,0,16.5c-5.5,0-10.9,0-16.5,0C262.5,101.9,262.5,96.5,262.5,90.8z"/>
	<path d="M248.2,165.7c-5.6,0-11,0-16.5,0c0-5.4,0-10.8,0-16.3c5.4,0,10.9,0,16.5,0C248.2,154.7,248.2,160.1,248.2,165.7z"/>
	<path d="M231.6,90.9c5.4,0,10.7,0,16.2,0c0,5.5,0,11,0,16.5c-5.4,0-10.7,0-16.2,0C231.6,101.9,231.6,96.4,231.6,90.9z"/>
	<path d="M248.1,120.2c0,5.3,0,10.6,0,16.1c-5.5,0-11,0-16.6,0c0-5.3,0-10.6,0-16.1C237.1,120.2,242.6,120.2,248.1,120.2z"/>
	<path d="M201.2,149.2c5.5,0,10.7,0,16.2,0c0,5.4,0,10.8,0,16.3c-5.3,0-10.6,0-16.2,0C201.2,160.3,201.2,154.9,201.2,149.2z"/>
	<path d="M279,136.3c-5.6,0-11,0-16.5,0c0-5.4,0-10.7,0-16.1c5.5,0,10.9,0,16.5,0C279,125.5,279,130.9,279,136.3z"/>
	<path d="M293.5,107.4c0-5.5,0-10.9,0-16.4c5.3,0,10.5,0,15.9,0c0,5.4,0,10.9,0,16.4C304.2,107.4,299,107.4,293.5,107.4z"/>
	<path d="M293.6,136.2c0-5.4,0-10.7,0-16.1c5.5,0,10.8,0,16.3,0c0,5.4,0,10.6,0,16.1C304.5,136.2,299.2,136.2,293.6,136.2z"/>
	<path d="M217.4,136.4c-0.8,0-1.4,0-2.1,0c-4.7,0-9.4,0-14.3,0c0-2.9,0-5.6,0-8.3c0-2.6,0-5.3,0-8c5.5,0,10.9,0,16.4,0
		C217.4,125.5,217.4,130.8,217.4,136.4z"/>
	<g>
		<path d="M123.4,341.7c-0.4-3-0.7-6.1-0.4-9c0.5-3.8,2.7-5.4,6.5-5.4c4.4-0.1,8.3-1.4,11.7-4.1c8.9-6.7,12.1-15.7,10.1-26.5
			c-0.7-4.2,0-7.8,2.7-11.1c1.5-1.8,3-3.6,4.5-5.4c15.5-19.4,30.9-38.8,46.4-58.2c4.5-5.7,8.9-11.5,13.3-17.2c1.3-1.6,2-3.4,0.6-5.6
			c-0.7,0.4-1.5,0.8-2.1,1.2c-2.5,1.9-5,3.7-7.4,5.7c-13.8,10.9-26.3,23.2-39,35.4c-2.8,2.8-4.7,5.8-5.6,9.6
			c-0.6,2.6-1.6,5.2-2.7,7.6c-3.7,7.6-9,14.1-15.1,20c-4.1,4.1-9.2,6.5-14.8,7.9c-10.2,2.8-16.6,9.2-18.6,19.6
			c-1.3,6.8,0.3,12.9,5.8,17.4c-1.1,2.6-2.4,4.7-3,7.1c-1.3,4.5-1.6,9.1,0.5,13.6c1,2.3,2.3,2.6,4.6,1.6
			C123.5,344.8,123.7,344,123.4,341.7z M174.5,252.2c-1.6,0.6-3.5-0.2-4.2-1.8c-0.7-1.7,0.1-3.6,1.8-4.3c1.6-0.6,3.4,0.1,4.1,1.7
			C177,249.6,176.2,251.6,174.5,252.2z M121.6,314.4c-2.5-5.5-0.6-12.6,4.8-17.4c2.3-2,4.8-3.3,8-3.6c5.2-0.4,9,2.4,10,7.6
			c1.4,7.4-2.8,15.4-9.7,18.4C129.2,321.7,124,319.6,121.6,314.4z"/>
		<path d="M159.7,251.7c1.2-3.5,2.3-7,3.6-10.5c-0.2,0-0.8-0.2-1.5-0.2c-8.6-0.4-17.2-1.1-25.9-1.2c-5.8-0.1-10.1-2.2-13.6-6.8
			c-7.1-9.1-19.9-11.9-30.4-7.1c-9.9,4.6-13,16.4-6.6,25.1c6.8,9.2,21.3,12,32.1,4.9c5.2-3.4,10.6-6,16.9-6.3
			C142.9,249.2,151.4,249.6,159.7,251.7z M90.4,245.3c-2.6-5.5-0.5-10.9,5-13.4c6.7-2.9,14.8-1.1,19.4,4.3c3.4,4,3.4,8.7,0,12.6
			C108.8,255.8,94.3,253.7,90.4,245.3z"/>
		<path d="M183.7,256.1c3.5-4.4,6.5-8.4,9.8-12.2c0.6-0.7,1.8-1.3,2.7-1.3c14.2,0.6,28.4,1.3,42.6,1.9c1.6,0.1,2.3,1,1.3,2.3
			c-0.9,1.1-2.2,2.3-3.6,2.5c-8.8,1.7-17.7,3.3-26.5,4.5C201.4,254.8,192.8,255.2,183.7,256.1z"/>
	</g>
</g>
</svg>
