<?xml version="1.0" encoding="utf-8"?>
<!-- Generator: Adobe Illustrator 23.1.0, SVG Export Plug-In . SVG Version: 6.00 Build 0)  -->
<svg version="1.1" id="Layer_1" xmlns="http://www.w3.org/2000/svg" xmlns:xlink="http://www.w3.org/1999/xlink" x="0px" y="0px"
	 viewBox="0 0 50 50" style="enable-background:new 0 0 50 50;" xml:space="preserve">
<style type="text/css">
	.st0{fill:#F3F4F6;stroke:#F3F4F6;stroke-miterlimit:10;}
	.st1{fill:none;stroke:#000000;stroke-width:3;stroke-miterlimit:10;}
</style>
<g>
	<path class="st0" d="M42.5,36.4l-1,1.1L28.8,24.8c1.5-2.2,2.4-4.9,2.4-7.8c0-7.8-6.4-14.2-14.2-14.2C9.1,2.8,2.8,9.1,2.8,17
		c0,7.8,6.3,14.1,14.2,14.2c2.9,0,5.6-0.9,7.8-2.4l12.6,12.6l-1,1.1l6.1,6.1l6.1-6.1L42.5,36.4z M16.9,25c-4.5,0-8.1-3.6-8.1-8.1
		c0-4.5,3.6-8.1,8.1-8.1c4.5,0,8.1,3.6,8.1,8.1C25,21.4,21.4,25,16.9,25z"/>
</g>
<g>
	<circle class="st1" cx="16.9" cy="16.9" r="11.3"/>
	<line class="st1" x1="39.7" y1="39.7" x2="24.9" y2="24.9"/>
	<rect x="40.9" y="40.9" transform="matrix(0.7071 -0.7071 0.7071 0.7071 -17.5427 42.3996)" width="3" height="3"/>
</g>
</svg>
