<?xml version="1.0" encoding="utf-8"?>
<!-- Generator: Adobe Illustrator 23.1.0, SVG Export Plug-In . SVG Version: 6.00 Build 0)  -->
<svg version="1.1" id="Layer_1" xmlns="http://www.w3.org/2000/svg" xmlns:xlink="http://www.w3.org/1999/xlink" x="0px" y="0px"
	 viewBox="0 0 365 365" style="enable-background:new 0 0 365 365;" xml:space="preserve">
<g>
	<g>
		<g>
			<path d="M114.6,170.2c2.1,5.8,7.3,7.4,12.5,9.8c-3.8,1.5-7.1,2.8-11.1,4.3c0.8-4.1-2.5-5.3-4.2-7.5c-2.5-3.4-3.6-7.3-4.1-11.4
				c0-0.5-0.1-0.9-0.1-1.7c-9.3,5.4-18.5,6-28.2,0.2c0,7-2.4,12.5-8.1,16.4c2.2,14.3,7.8,25.7,23.9,28.6c-0.6,1.5-1,2.9-1.8,4.3
				c-0.2,0.4-1.4,0.6-2,0.4c-11.1-2.8-18.4-9.8-22.7-20.3c-0.4-0.9-0.7-1.8-0.9-2.4c-2.1,1.7-4.2,3.5-6.2,5.3
				c-0.2,0.2-0.3,0.7-0.3,1c0.4,6.6-0.8,13-2,19.4c-0.3,1.8-0.7,3.6-1.1,5.3c-0.4,1.5-1,2.9-2.9,2.7c-1.7-0.2-2.5-1.6-2.2-3.7
				c0.8-4.9,1.7-9.8,2.4-14.7c0.4-2.5,0.4-5.1,0.6-7.7c0.1-1.5-0.4-2.5-1.9-3.1c-3.9-1.7-6.3-4.6-6.7-8.9c-0.3-2.8,0.8-5.1,2.3-7.3
				c0.2-0.3,0.4-0.7,0.8-1.2c-2.2-1.7-4.3-3.6-6.6-5c-2.4-1.5-3.9-0.7-4.6,2.1c-0.5,1.9-1.1,3.7-1.4,5.7c-0.1,0.7,0.2,1.9,0.7,2.2
				c3.6,1.9,5.2,5,6,8.7c0.4,1.8,1.1,3.1,2.6,4.1c1.3,0.9,2.7,1.9,1.6,3.8c-0.8,1.4-2.5,1.6-4.4,0.7c-0.7-0.3-1.6-0.5-2.2-0.2
				c-2.7,1.3-5.4,2.9-8.2,4.5c0.2,4.5,2.4,8.9,4.6,13.3c0.4,0.7,0.9,1.6,0.8,2.2c-0.3,1.1-0.8,2.3-1.6,2.8c-0.4,0.3-2.2-0.4-2.6-1.1
				c-1.8-3.3-3.7-6.7-5-10.3c-1-2.7-1.1-5.8-1.6-8.7c-0.1-0.5-0.4-1.2-0.8-1.5c-6-5.2-5-15.9,3.1-18.7c0.6-0.2,1.2-1,1.3-1.6
				c1.1-4.8,2.2-9.5,3.1-14.4c0.1-0.8-0.4-1.8-0.9-2.5c-6.4-8.9-12.1-18.1-16.4-28.2c-0.2-0.4-0.3-0.8-0.5-1.3
				c0.2-0.1,0.4-0.3,0.5-0.4c6.3,7.2,12.6,14.4,19,21.8c1.4-9.3,2.8-18.5,4.2-27.6c0.3,0,0.5,0,0.8,0c0.3,1,0.8,2,1,3.1
				c1.3,7,0.9,14.1,0.7,21.2c-0.1,3.8-0.2,7.6-0.2,11.3c0,0.7,0.5,1.6,1,2.1c3.4,3.1,6.6,6.8,10.5,9.1c2.8,1.7,6.7,2.5,10,2.2
				c3.6-0.4,6.4-3.2,7.8-6.7c-3.2-0.8-6.5-1.5-9.6-2.6c-5.4-1.8-9.9-4.9-13.4-9.4c-0.5-0.6-0.9-1.6-0.9-2.3
				c0.2-6.6,0.4-13.2,0.7-19.8c0.6-13.9,1.5-27.7,6.1-41C60.8,80.9,70.5,71.1,86,67.8c16.6-3.5,34.5,4,42.8,20
				c3.6,7,5.5,14.6,6.8,22.3c2.5,14.7,2.9,29.7,3.3,44.6c0.1,2-0.6,3.5-1.9,4.9C131.1,166,123.5,169.2,114.6,170.2z M121.4,110.3
				c-15.9,0.9-28.1-5.8-38.7-17.1c-2.5,2.6-5.2,5.3-7.7,8.1c-3.7,3.9-6.4,8.4-7.8,13.7c-1.4,5.3-1.7,10.7-1.3,16.2
				c0.8,10.2,4,19,12.4,25.5c5.1,4,10.6,6.8,17.1,6c10.7-1.4,18.1-8,22.9-17.3c2.6-5,3.4-10.7,3.8-16.4
				C122.6,122.7,122.5,116.5,121.4,110.3z M39.9,192.9c0-3.4-2.4-5.8-5.6-5.8c-3.1,0-5.7,2.6-5.7,5.7c-0.1,2.8,2.7,5.6,5.5,5.7
				C37.6,198.5,39.9,196.3,39.9,192.9z M57.7,191.6c3.3,0,5.5-2.1,5.6-5.5c0.1-3.2-2.3-5.5-5.6-5.5c-3.1,0-5.5,2.3-5.5,5.4
				C52,189.1,54.5,191.6,57.7,191.6z"/>
			<path d="M319.1,213.9c-0.8-0.3-1.8-0.6-2.7-0.9c-4.3-1.6-5.6-4.8-3.9-9c0.3-0.7,0.3-1.8,0-2.5c-1-2.2-0.4-4.2,0.7-6.2
				c0.3-0.6,0.2-1.5,0.2-2.3c0-2.3,0-4.5,0-7.3c-1-0.4-2.6-1.1-3.9-1.7c-2.1,3.8-3.7,7.6-6.1,11c-6.3,8.9-14.9,13.4-26,12.8
				c-2-0.1-3.4-0.5-3.7-2.7c-0.2-1.1-0.7-2.1-1.1-3.1c2.6,0.2,5.2,0.5,7.7,0.6c10.3,0.2,20.4-8.9,23.1-19c0.3-1.2,0.1-1.9-1.1-2.6
				c-5.6-3-8.7-7.7-9.3-14c-0.1-1,0.1-2,0.2-3.2c-4.7,2.7-9.7,4.1-14.9,3.8c-5.3-0.3-10-2.7-13.9-5.6c-0.7,3.4-1.2,6.9-2.3,10.2
				c-1,3.3-3.3,5.8-6.3,7.7c-1,0.6-1.5,1.9-2.4,2.7c-0.5,0.4-1.3,0.9-1.8,0.8c-2.5-0.9-4.9-2.1-7.8-3.3c1.7-0.7,3.2-1.4,4.6-2
				c10.5-4.1,12.3-15.6,7.3-23.7c-2-3.2-3.9-6.4-5.9-9.7c-4.3,5.9-9.9,9.8-18.1,9.5c0.3-0.8,0.5-1.3,0.7-1.8
				c4.8-9,5.1-18.6,3.6-28.3c-1.2-7.4-2.9-14.6-4-22c-0.8-5.8-0.6-11.5,1.5-17.1c2.7-7.1,12.1-11.6,19.4-7.7
				c0.5,0.3,1.6,0.1,2.1-0.3c21.8-16.4,51.7-5.7,58.1,20.7c1.4,5.7,1.6,11.5,0.2,17.2c-0.1,0.5-0.1,1.3,0.1,1.4
				c2.9,1.7,3.1,4.6,2.7,7.3c-0.6,4.3-1.5,8.4-2.4,12.7c-0.1,0.5-0.3,1.1-0.6,1.5c-2.5,2.9-3.2,6.8-5,10c-2,3.6-4.3,7.1-7.1,10
				c-3,3-3.2,6.3-2.6,9.9c0.7,4.6,3.3,7.8,7.8,9.4c2.7,0.9,5.2,2.1,7.8,3.3c1.2,0.5,1.7,0.3,2.1-0.9c0.7-2.6,2.4-4.4,5-5.4
				c0.4-0.2,0.9-0.7,1-1.2c3.6-12.7,7.1-25.5,10.7-38.2c1.3-4.8,4.9-7.1,9.2-6c3.9,1.1,5.8,4.1,4.7,8c-2.7,9.7-5.6,19.4-8.4,29
				c-0.9,3-1.7,5.9-2.6,8.9c-0.3,1.1-0.3,1.8,0.8,2.5c6,4.4,8.9,10.5,8,17.9c-0.8,6.5-2,12.9-3,19.3c-0.4,2.7-0.7,5.3-1,8
				c-0.2,1.5-0.6,2.8-2.3,2.8c-1.8,0-2.7-1.4-2.6-3c0.3-3.8,0.7-7.6,1.4-11.4c0.9-5,2.1-10,2.9-15c1.1-6.6-2.4-13.6-8.4-16.6
				c-2.9-1.5-6.2-1.2-9.2,0.3c-0.5,0.3-0.9,1.1-0.9,1.8c0,0.3,0.9,0.8,1.5,0.9c1.5,0.2,3,0.3,4.4,0.4c3.1,0.1,5.3,1.7,7,4.1
				c0.4,0.6,0.4,1.5,0.7,2.7c-2.7-0.7-4.9-1.3-7.2-1.7c-2.4-0.4-4.8-0.5-7.2-0.6c-0.7,0-1.5,0.3-2,0.8c-0.5,0.6-0.9,1.5-0.9,2.2
				c0,0.4,1.2,0.9,1.9,0.9c3.1,0,6.2,0.1,9,1.6c1.2,0.7,2.1,1.4,1.8,3c-0.4,1.6-1.6,1.6-2.9,1.5c-2.5-0.2-4.9-0.6-7.4-0.8
				c-0.6-0.1-1.5,0-1.9,0.3c-0.6,0.5-1.3,1.3-1.3,1.9c0,0.5,1.1,1.1,1.8,1.3c1.7,0.4,3.5,0.4,5.1,0.8c1.4,0.3,2.9,1.2,2.5,2.9
				c-0.4,1.7-1.8,2.1-3.6,1.7c-1.2-0.3-2.5-0.4-3.8-0.5c-1.2-0.1-2.4,0-2.7,1.5c-0.2,1.4,0.8,1.9,1.9,2.2c1.8,0.5,3.6,1.1,5.4,1.5
				c1.2,0.2,1.5,0.8,1.2,1.8c-0.8,3.7-1.6,7.3-2.3,11c-0.3,1.5-1.2,2.2-2.5,2.2c-1.5,0-2.5-1-2.4-2.5
				C318.3,219.9,318.7,217.1,319.1,213.9z M252.8,136.1c0.3,0.9,0.5,1.6,0.7,2.3c2.2,9.6,7.7,16.6,16.3,21.3c4.1,2.3,8.5,3.5,13,2.5
				c9.1-1.9,15.8-7.2,20.7-15.2c2.5-4.1,3-8.8,5.6-12.9c2-3.2,2-7.6,3-11.8c-1.1,0.1-1.7,0.2-2.4,0.3c-0.2-1.7-0.5-3.3-0.5-4.9
				c0-1.5-0.5-2.1-2-2.4c-10.5-2.4-20-6.7-28.3-13.6c-2.9-2.4-5.5-5-8.1-7.4c-1.4,1.2-2.8,2.6-4.3,3.9c-7.5,6.4-11.4,14.6-12.7,24.3
				c-0.2,1.4-0.7,2.7-1.1,4c-0.2,0-0.4,0-0.6-0.1c-0.4-0.8-0.6-1.6-1.1-2.3c-0.7-1-1.3-2.1-2.3-2.7c-1.4-1-3-0.3-3,1.3
				c-0.1,4.2,0.7,8.3,2.9,12C249.5,136,250.8,136.8,252.8,136.1z"/>
			<g>
				<path d="M196.2,139.4c0-2.6,1.2-3.9,3.3-3.9c2,0,3.6,1.8,3.6,4.1c0,2.2-1.5,4-3.4,4C197.8,143.6,196.2,141.7,196.2,139.4z"/>
				<g>
					<g>
						<path d="M150.8,207.9c1.2,14.6,4.9,28.2,9,41.8c-20.9,0-41.6,0-62.9,0c0.6-3.5,0.9-6.8,1.7-10c3.6-15,13.7-23.7,27.8-28.7
							c6.4-2.3,12.8-4.5,19.2-6.8c8.7-3.2,11.4-9.3,11.7-18.3c0-0.5-0.2-1-0.5-1.5c-4-6.4-5.6-13.6-6.5-21c-0.1-0.7-0.3-1.7-0.9-2.1
							c-3.8-2.9-5.1-7.2-6.4-11.5c-0.8-2.6-1.4-5.3-1.9-8c-0.5-3,0-5.8,2.7-7.8c0.5-0.3,0.7-1.5,0.5-2.2c-2.1-9.1-2.1-18.1,1.2-26.8
							c5.8-15,16.6-24.2,32.5-26.8c12.1-2,23.3,0.7,33,8.7c3.1,2.6,5.6,5.7,6.9,9.6c0.2,0.6,0.7,1.4,1.3,1.7
							c8.2,4.1,9.6,11.3,8.8,19.4c-0.5,5.1-1.7,10-2.6,15.1c-0.1,0.5,0.1,1.2,0.4,1.5c2.5,1.8,3.3,4.3,2.9,7.1
							c-0.8,6.1-2.4,12-6,17.1c-0.5,0.7-0.9,1.4-1.6,1.8c-1.8,1.1-2,2.8-2.1,4.7c-0.5,6.1-1.9,12.1-4.8,17.6
							c-1.3,2.4-1.6,4.7-1.2,7.3c1.1,7.2,4.6,12.3,11.8,14.7c7.5,2.5,15,5.1,22.4,8c7.8,3.1,14.5,7.6,19.4,14.7
							c3.5,5.2,5.1,11.1,6.1,17.1c0.3,1.8,0.6,3.6,0.8,5.5c-21,0-41.9,0-63,0c4.2-13.5,7.6-26.9,8.7-40.8c-0.2-0.1-0.5-0.2-0.7-0.4
							c-2.5,2.1-4.9,4.1-7.7,6.5c-0.5-4.3-0.7-8,3-9.9c-2.2-4-4.2-7.7-6.2-11.5c-5.9,6-13.6,9.1-22.5,9c-9-0.2-16.4-3.8-22.5-10.6
							c-0.6,1.9-0.8,3.7-1.6,5.2c-1.2,2.3-2.8,4.4-4.1,6.7c-0.3,0.5-0.4,1.6-0.1,1.7c3.8,2.2,2.5,5.8,2.3,9.3
							C156.3,212.6,153.8,210.5,150.8,207.9z M220,142.9c-0.2,0-0.5-0.1-0.7-0.1c-0.5-3.6-1.1-7.1-1.5-10.7
							c-0.6-5.3-0.9-10.6-1.7-15.8c-0.7-4.2-2.6-8-5.1-11.5c-0.5-0.7-0.9-1.9-2.3-1.2c-7,3.5-14.7,4.1-22.4,4.4
							c-5.8,0.2-11.7-0.3-17.4,0.1c-4,0.3-8,1.4-12,2.4c-1.1,0.3-2.3,1.6-2.6,2.7c-0.7,2-0.8,4.2-1,6.3c-0.5,5.6-0.8,11.3-1.3,16.9
							c-0.2,2.2-0.9,4.4-1.5,7c-1.1-1.6-1.9-2.7-2.7-3.9c-0.5,0.9-0.8,1.9-0.6,2.7c0.9,3.8,1.8,7.6,3,11.3c0.2,0.7,1.4,1.1,2.1,1.7
							c0.2-0.2,0.4-0.4,0.5-0.5c1.5,6.6,5.9,11.1,11.1,15c5.9-6.1,13-8.7,21.3-8.6c8.3,0.1,15.7,2.1,21.2,8.7
							c4.9-4.3,9.5-8.5,10.7-15.3c2,0.9,2.6,0,2.9-1.5c0.8-3.1,1.6-6.2,2.3-9.4c0.3-1.1,0.3-2.3,0.5-3.4c-0.2-0.1-0.3-0.1-0.5-0.2
							C221.5,140.9,220.8,141.9,220,142.9z M190,174.7c-0.4,1.4-1.2,2.8-0.9,3.8c0.7,2.6,4.7,3.8,6.7,2.1c1.4-1.2,2.5-2.9,3.5-4.6
							c0.6-1,0.3-2.2-0.9-2.7c-2.3-1.1-4.6-2.2-6.9-3.2c-1.3-0.6-2.5-0.7-4-0.1c-1.2,0.5-2.7,0.6-3.9,0.2c-2-0.6-3.8-0.6-5.6,0.3
							c-2.2,1-4.5,2-6.8,3.1c-0.4,0.2-0.8,0.6-0.8,1c-0.3,2.1,3,6.4,5,6.8c1.6,0.3,3.7-0.8,4.8-2.4c1.1-1.6,0.4-2.6-0.9-3.5
							c-0.1-0.1,0-0.5,0-0.7C183,174.7,186.6,174.7,190,174.7z"/>
						<path d="M161.4,213.9c0.4-2.8,0.6-5,1.1-7.1c0.8-3.3,3.5-4.8,6.7-3.7c3.1,1.1,6.1,2.5,9.1,3.9c4.6,2,9.2,2.2,13.8,0
							c2.6-1.3,5.2-2.7,7.8-3.7c3.9-1.5,6.8,0,7.6,4.1c1,4.9,0.8,9.8-0.6,14.6c-1.1,3.6-3.1,4.8-6.6,3.5c-3.5-1.3-6.8-2.8-10.2-4.3
							c-0.2-0.1-0.5-0.4-0.7-0.4c-3.7,0.9-7.5-1.1-11.2,1c-2.9,1.6-6.1,2.8-9.3,3.8c-2.6,0.9-4.7-0.1-5.5-2.6
							C162.4,220,162,216.7,161.4,213.9z"/>
						<path d="M189.2,145c0.2-3.1,0.3-6.2,0.5-9.3c0.3-5.2,3.2-6.8,7.3-7.4c3.6-0.6,7,0.3,9.8,2.7c0.7,0.6,0.7,1.8,1.1,2.7
							c-0.9,0-1.8,0.3-2.6,0c-2.9-1.2-5.7-1.9-8.8-1.1c-2.4,0.6-3.9,2.1-3.9,4.7c0,4.9,0.2,9.7,0.4,14.6c0.1,2.6,0,5.2-2.6,6.5
							c-2.9,1.5-6.1,1.7-9.1,0.1c-0.6-0.3-1.1-1.4-1-1.9c0.1-0.5,1.1-1.1,1.8-1.1c1.1-0.1,2.3,0.2,3.4,0.3c2.8,0.1,3.7-0.7,3.8-3.5
							c0.1-2.4,0-4.9,0-7.3C189.3,145,189.2,145,189.2,145z"/>
					</g>
					<path d="M172,128.1c1.1,0.3,3.2,0.8,5.1,1.6c0.7,0.3,0.9,1.6,1.3,2.5c-0.9,0.2-1.9,0.9-2.6,0.7c-4.1-1.1-8-0.6-11.8,1
						c-0.7,0.3-1.7-0.1-2.5-0.2c0.3-0.8,0.4-1.9,1-2.4C164.8,129,167.8,128.3,172,128.1z"/>
					<path d="M173.5,139.7c0,2.2-1.4,3.9-3.2,3.9c-2-0.1-3.7-1.9-3.7-4c0-2.3,1.6-4.1,3.6-4.1C172.1,135.6,173.5,137.4,173.5,139.7z
						"/>
				</g>
			</g>
			<path d="M101.7,119.8c-1,0.1-1.8,0.2-2.6,0.4c-0.2-0.2-0.3-0.3-0.5-0.5c0.6-0.7,1-1.7,1.7-2.2c2.6-1.8,9.8-1.3,12.1,0.6
				c0.5,0.4,0.8,1.2,1.5,2.1c-1.9,0-3.2,0-4.7,0c-0.3,2.3-0.8,4.6-3.8,4.8C103.5,125.1,102.4,123.5,101.7,119.8z"/>
			<path d="M77.5,120c-1.3,0.1-2.5,0.2-3.7,0.3c0-2,1.5-3.2,4.3-3.7c4.9-0.9,8.3,0.2,9.4,3.1c-0.9,0.1-1.7,0.2-2.7,0.3
				c0,2.4-0.5,4.8-3.5,5C79,125.1,78,123.5,77.5,120z"/>
			<path d="M93.5,148.3c-2.8-0.7-5.6-1.4-8.3-2.2c-0.6-0.2-0.9-1.3-1.4-1.9c0.7-0.3,1.6-1,2.2-0.8c5.1,1.5,10.1,1.5,15.1,0
				c0.6-0.2,1.4,0.4,2,0.7c-0.4,0.7-0.7,1.8-1.2,2C99.3,147,96.5,147.6,93.5,148.3z"/>
			<path d="M93.4,137.8c-1.3-0.9-2.5-1.7-3.6-2.6c-0.3-0.3-0.1-1.1-0.1-1.6c0.5,0,1.1-0.2,1.4,0.1c1.6,1,3.2,0.9,4.8,0.3
				c0.4-0.2,1,0,1.4,0c-0.1,0.6,0.1,1.4-0.2,1.7C96.1,136.4,94.9,137,93.4,137.8z"/>
			<path d="M265.1,120.2c-1.4,0-2.7,0-4.3,0c1-2.9,3.3-3.4,5.4-3.6c3.3-0.3,6.9-1,9.6,2.8c-1.2,0.4-2.1,0.7-2.8,1
				c-0.7,1.4-1.2,2.8-2.1,4c-0.3,0.5-1.3,0.7-2,0.7C266.7,125,265.5,123.5,265.1,120.2z"/>
			<path d="M286.5,119.3c0.7-0.7,1.3-1.7,2.2-2.1c3.5-1.3,7.1-1.2,10.5,0.5c0.4,0.2,0.9,0.5,1.1,0.8c0.3,0.4,0.3,0.9,0.5,1.4
				c-0.5,0.1-0.9,0.4-1.4,0.4c-0.8,0-1.6-0.2-2.3-0.3c-1.1,3.8-2.2,5-4.1,4.8c-2.3-0.3-3.3-1.6-3.5-5c-0.8,0-1.6,0-2.5,0
				C286.9,119.7,286.7,119.5,286.5,119.3z"/>
			<path d="M281.3,148.3c-2.6-0.6-5-1.1-7.3-1.7c-1.2-0.3-2.7-0.9-2.1-2.5c0.2-0.4,1.9-0.4,3-0.3c2.3,0.2,4.5,0.8,6.8,0.8
				c2.2,0,4.3-0.7,6.5-0.9c0.8-0.1,1.6,0.4,2.4,0.6c-0.4,0.7-0.7,1.8-1.3,2C286.6,147.1,283.9,147.6,281.3,148.3z"/>
			<path d="M277.1,133.4c0.8,0.2,1.4,0.4,2.1,0.4c1.3,0,2.7-0.1,4-0.1c0.6,0,1.2-0.1,1.7,0.1c0.2,0.1,0.2,0.9,0.1,1.3
				c-0.4,1.4-2.5,2.3-4.4,2C278.1,136.8,277.1,135.9,277.1,133.4z"/>
		</g>
	</g>
</g>
</svg>
