<?xml version="1.0" encoding="utf-8"?>
<!-- Generator: Adobe Illustrator 23.1.0, SVG Export Plug-In . SVG Version: 6.00 Build 0)  -->
<svg version="1.1" id="Layer_1" xmlns="http://www.w3.org/2000/svg" xmlns:xlink="http://www.w3.org/1999/xlink" x="0px" y="0px"
	 viewBox="0 0 365 365" style="enable-background:new 0 0 365 365;" xml:space="preserve">
<g>
	<path d="M187.5,128.2c-1.6-13.7-6-26.5-14.5-37.6c-16.9-22-39.5-33.2-67.1-34C85.8,56,66.8,61,49.8,72.1
		C34.1,82.3,22.3,96,17.2,114.5c-2.5,9.1-2.6,18.2,2.7,26.4c2.2,3.5,2.2,6.6,1.1,10.1c-0.7,2.1-1.6,4.3-2.8,6.2
		c-3,4.8-6.3,9.4-9.3,14.2c-4,6.3-3,10.9,3.1,15.2c1.8,1.2,3.7,2.3,5.5,3.4c-2.1,5.8-4.1,11.4,2,15.8c-1.4,4.4-1.3,6.8,1.4,9.8
		c2.1,2.4,2.6,5,2.6,8c0,9.7,3.9,15.3,15.8,16.3c4.8,0.4,9.8-0.4,14.7-0.8c4.9-0.4,8.5,1.8,9.4,6.6c0.7,3.7,1.1,7.4,1.3,11.1
		c0.5,8.3-0.1,16.3-5.5,23.4c-4,5.2-7.5,10.8-11,16.3c-0.9,1.3-1.5,2.9-1.8,4.5c-0.5,2.7,1,4.4,3.7,4c7.6-1,15.4-1.4,22.6-3.6
		c9.9-3.2,19.4-7.7,29-11.9c11.3-4.9,22.5-9.9,34.7-12.3c8.1-1.5,8.8-3.6,4.4-10.5c-2.3-3.6-4.1-7.7-6-11.6c-0.9-1.8-0.2-3,1.7-3.9
		c5-2.4,9.9-5,14.8-7.8c1.4-0.8,2.9-2.4,3.3-4c1.8-7.6,3.3-15.3,4.6-23c0.7-4.2,0.8-8.5,1.2-12.7c1.7,11.1,2.9,22.2,0.5,33.8
		c8-4.8,15.3-9.4,22.9-13.5c2.8-1.5,4.3-3.5,4.6-6.5c0.7-7.6,1.7-15.2,1.9-22.9C190.6,172.4,190.1,150.3,187.5,128.2z M118.5,273.1
		c-12.4,5.2-24.7,10.7-37.1,15.9c-3.6,1.5-7.3,3-11,4.1s-7.6,1.9-11.3,2.8c6.1-9.2,13.8-17.3,14-29c0.2-10.7,1.7-21.8-5.4-31.6
		c6.6-3.6,11.6-8.9,15.5-15.8c-1.6,0.7-2.9,1.2-4,1.8c-10.3,5.4-21.5,7.9-32.8,10.1c-4.1,0.8-8.2,0.5-11.7-2.1
		c-1.7-1.3-2.8-2.8-2.7-5.1c0-0.3,0-0.5,0-0.8c0.4-5.4,0.3-10.5-5.5-13.7c2.4-2.1,4.5-3.8,6.7-5.6c-2.3-1.4-4.3-2.8-6.5-4
		c-2.3-1.2-2.9-2.7-1.9-5.1c0.7-1.6,0.8-3.4,1.3-5c0.8-2.6-0.3-4.4-2.5-5.8c-2-1.2-4.1-2.4-6.1-3.7c-2.2-1.4-2.6-3.3-1.3-5.4
		c1.6-2.6,3.2-5.2,5.1-7.5c8.2-9.8,9.7-21,7.7-33.2c-1.1-7.1,0.5-14,3.2-20.8c1.8,11.2,7,20.3,16.1,27c8.9,6.6,18.8,10.1,30.3,10
		c-4.2-3.6-8.1-6.9-11.9-10.4c-5.4-5.1-10.4-10.4-13.7-17.2c-3-6.1-3.6-12.5-1.7-19.2c0.3,1.2,0.5,2.3,0.8,3.5
		c2.4,9.8,7.2,18.3,14.1,25.6c5.5,5.7,11.2,11.3,17.2,16.4c8.4,7,12.2,16.2,13.8,26.6c2.8,18.3,0.4,36.2-4.6,53.8
		c-3.1,10.9-7.1,21.6-10.6,32.4c-0.3,0.8-0.5,1.5-0.8,2.3c-1,3.4,0,4.5,3.5,3.7c7.6-1.8,15.2-3.7,22.8-5.7c0.9-0.2,1.8-1.3,2.3-2.2
		c5-10.8,9.7-21.8,12.6-33.5c0.1-0.3,0.2-0.6,0.5-0.8c0.6,11.1-1.8,21.9-4.2,33c2.5-0.8,4.7-1.5,6.9-2.2c1.9,4.2,3.7,8.3,5.6,12.5
		C127,270.3,122.6,271.4,118.5,273.1z"/>
	<path d="M308.4,95.3c-7.3-4.6-15.1-7.7-23.4-9.1c-17.5-3-34.4-1.3-50.1,7.4c-4.7,2.6-9,6.2-13.3,9.5c-2.5,1.9-4.9,2.8-7.8,1.4
		c-3.1-1.6-5.2-4.1-4.7-7.6c0.3-1.9,1.6-4.1,3.1-5.4c12.5-11,27.2-17.9,43.6-20.8c21.8-3.9,42.2-0.2,61.2,12.1
		c3.4-4.9,6.7-9.9,10.4-14.7c1-1.3,2.8-2.5,4.3-2.7c2.6-0.4,4.2,1.4,4.8,4.8c1.5,7.8,3,15.6,4.4,23.3c1.2,6.4,2.4,12.9,3.6,19.3
		c0.7,3.5-0.8,5.6-4.4,5.6c-12.8,0.1-25.6,0.2-38.3,0.1c-5.4,0-7-3.3-4-7.8C301.2,105.7,304.7,100.7,308.4,95.3z"/>
	<path d="M358.6,150.2c-1.2,31.4-14.5,55.4-40.4,72.2c-8.1,5.2-17,8.7-26.3,11.1c-6.1,1.6-10.6-1.1-11.4-6.5
		c-0.7-4.3,1.6-7.8,5.8-8.4c18.6-2.5,32.6-12.7,43.7-27c10.4-13.5,15.1-28.9,13.9-46.1c-0.1-1.4-0.2-2.7-0.1-4.1
		c0.1-3.5,2.7-6.4,6-6.7c3.8-0.4,7.1,1.7,7.7,5.3C358,143.6,358.3,147.1,358.6,150.2z"/>
	<g>
		<path d="M314.3,299.2c-3.8-1.2-7.7-2.4-11-4.4c-4.3-2.6-5-6.2-3-10.7c2.3-5.3,2.8-10.7,1.5-16.3c-3.3-14.3-12.3-23-26.4-26.5
			c-5.4-1.4-9.4-4.2-11.8-9.3c-1.3-2.8-2.7-5.6-4.1-8.3c-14.9-29.1-29.8-58.2-44.7-87.3c-4.4-8.5-9-16.9-13.5-25.3
			c-1.3-2.4-3-4.3-6.4-3.8c0.1,1.1,0.1,2.2,0.3,3.2c0.9,4,1.8,8,2.8,12c5.6,22.5,13.6,44.2,21.4,66c1.8,4.9,4.4,8.8,8.5,12
			c2.8,2.1,5.4,4.7,7.6,7.4c7.1,8.6,12,18.5,15.8,28.9c2.7,7.2,2.8,14.6,1.5,22.1c-2.2,13.7,2.1,24.9,13.4,33
			c7.5,5.3,15.7,6.6,24,2.5c2.5,2.7,4.4,5.4,6.9,7.5c4.7,4,10.1,6.9,16.6,6.8c3.3,0,4.4-1.3,4.4-4.6
			C318,300.8,317.2,300.1,314.3,299.2z M234.5,189.3c-0.1,2.2-2.2,4.1-4.4,4.1c-2.4-0.1-4.3-2.1-4.2-4.5c0.1-2.3,2-4,4.3-4
			C232.7,184.9,234.6,186.9,234.5,189.3z M280.4,286.6c-8,0-15.4-6.1-18.3-15.2c-1.2-3.9-1.4-7.6,0-11.5c2.4-6.5,7.8-9.5,14.6-7.9
			c9.7,2.3,17,11.7,16.8,21.6C293.3,281.4,288,286.5,280.4,286.6z"/>
		<path d="M225.8,206.8c-3.5-3.3-7.1-6.6-10.6-10c-0.1,0.2-0.7,0.9-1.1,1.7c-5.2,10.1-10.7,20.1-15.5,30.4
			c-3.2,6.9-8.1,10.9-15.5,12.7c-14.8,3.6-25.1,17.4-25,32.7c0.1,14.4,12.7,24.5,26.6,21.5c14.8-3.2,26-19,23.3-35.9
			c-1.3-8.1-1.4-16,1.6-23.7C213.7,225.6,218.8,215.6,225.8,206.8z M180.5,286.6c-8,0.1-13.3-5.3-13.3-13.3
			c0.1-9.6,6.7-18.4,15.7-21c6.7-1.9,12.3,0.6,15.1,6.8C203.1,270.2,192.7,286.5,180.5,286.6z"/>
		<path d="M244.1,180.4c-3.4-6.6-6.5-12.4-9.3-18.4c-0.5-1.1-0.6-2.9-0.1-4c8.4-16.8,16.9-33.4,25.4-50.1c1-1.9,2.5-2.2,3.4-0.3
			c0.8,1.7,1.5,3.9,1,5.7c-2.8,11.5-5.6,23-9,34.2C252.1,158.4,248,169,244.1,180.4z"/>
	</g>
</g>
</svg>
