<?xml version="1.0" encoding="utf-8"?>
<!-- Generator: Adobe Illustrator 23.1.0, SVG Export Plug-In . SVG Version: 6.00 Build 0)  -->
<svg version="1.1" id="Layer_1" xmlns="http://www.w3.org/2000/svg" xmlns:xlink="http://www.w3.org/1999/xlink" x="0px" y="0px"
	 viewBox="0 0 50 50" style="enable-background:new 0 0 50 50;" xml:space="preserve">
<style type="text/css">
	.st0{fill:#F3F4F6;}
</style>
<path d="M44.7,21h-4.2c-0.4-1.4-1-2.8-1.6-3.9l3-3c0.6-0.6,0.6-1.4,0-2l-3.7-3.7c-0.6-0.6-1.4-0.6-2,0l-3.1,3
	c-0.4-0.3-0.9-0.5-1.2-0.7c-0.9-0.4-1.7-0.8-2.7-1V5.4c0-0.9-0.7-1.4-1.4-1.4h-5.3C21.7,4,21,4.6,21,5.4v4.2
	c-1.1,0.3-2.2,0.7-3.1,1.2c-0.3,0.1-0.6,0.3-0.8,0.5l-3-3c-0.6-0.6-1.4-0.6-2,0l-3.7,3.7c-0.6,0.6-0.6,1.4,0,2l3,3
	c-0.8,1.2-1.2,2.6-1.6,3.9H5.4C4.7,21,4,21.7,4,22.4v5.3c0,0.8,0.7,1.4,1.4,1.4h4.2c0.4,1.4,1,2.8,1.6,3.9l-3,2.9
	c-0.6,0.6-0.6,1.4,0,2l3.7,3.7c0.6,0.6,1.4,0.6,2,0l3-3c1.2,0.8,2.6,1.2,3.9,1.6v4.2c0,0.8,0.7,1.4,1.4,1.4h5.3
	c0.8,0,1.4-0.7,1.4-1.4v-4.2c1.4-0.4,2.8-1,3.9-1.6l3,3c0.6,0.6,1.4,0.6,2,0l3.7-3.7c0.6-0.6,0.6-1.4,0-2l-3-2.9
	c0.8-1.2,1.2-2.6,1.6-3.9h4.2c0.8,0,1.4-0.7,1.4-1.4v-5.3C46.1,21.6,45.4,21,44.7,21z M25.1,28.1c-1.7,0-3.1-1.4-3.1-3.1
	s1.4-3.1,3.1-3.1c1.7,0,3.1,1.4,3.1,3.1S26.8,28.1,25.1,28.1z"/>
<path class="st0" d="M47.2,20.1c-0.6-0.7-1.5-1.1-2.5-1.1h-2.7c-0.2-0.5-0.4-1-0.6-1.5l1.9-1.9c1.3-1.4,1.3-3.5,0-4.8L39.5,7
	c-0.6-0.6-1.5-1-2.4-1c-0.9,0-1.8,0.4-2.4,1l-2,1.9l-0.1,0c-0.5-0.2-1-0.4-1.5-0.6V5.4c0-1.9-1.5-3.4-3.4-3.4h-5.3
	C20.5,2,19,3.5,19,5.4v2.7c-0.6,0.2-1.1,0.4-1.6,0.7L15.5,7c-0.7-0.6-1.5-1-2.4-1c-0.9,0-1.8,0.4-2.4,1L7,10.7c-0.7,0.7-1,1.5-1,2.4
	c0,0.9,0.4,1.8,1,2.4l1.9,1.9c-0.3,0.5-0.5,1-0.6,1.5H5.4C3.6,19,2,20.6,2,22.4v5.3c0,1.9,1.6,3.4,3.4,3.4h2.7
	c0.2,0.5,0.4,1,0.6,1.5l-1.9,1.9c-1.4,1.4-1.3,3.5,0,4.8l3.7,3.7c0.7,0.7,1.5,1,2.4,1c0.9,0,1.8-0.4,2.4-1l1.9-1.9
	c0.5,0.3,1.1,0.5,1.5,0.6v2.7c0,1.9,1.6,3.4,3.4,3.4h5.3c1.9,0,3.4-1.6,3.4-3.4v-2.7c0.5-0.2,1-0.4,1.5-0.6l1.9,1.9
	c0.7,0.7,1.5,1,2.4,1c0.9,0,1.8-0.4,2.4-1l3.7-3.7c1.4-1.4,1.4-3.5,0-4.8l-1.9-1.9c0.3-0.5,0.5-1.1,0.6-1.6h2.7
	c1.9,0,3.4-1.6,3.4-3.4v-5.2C48.1,21.6,47.8,20.8,47.2,20.1z M46,22.4v5.3c0,0.8-0.7,1.4-1.4,1.4h-4.2c-0.4,1.3-0.9,2.7-1.6,3.9
	l3,2.9c0.6,0.6,0.6,1.4,0,2L38,41.7c-0.6,0.6-1.4,0.6-2,0l-3-3c-1.1,0.7-2.5,1.2-3.9,1.6v4.2c0,0.8-0.7,1.4-1.4,1.4h-5.3
	c-0.8,0-1.4-0.7-1.4-1.4v-4.2c-1.3-0.4-2.7-0.8-3.9-1.6l-3,3c-0.6,0.6-1.4,0.6-2,0L8.3,38c-0.6-0.6-0.6-1.4,0-2l3-2.9
	c-0.7-1.2-1.2-2.5-1.6-3.9H5.4c-0.8,0-1.4-0.7-1.4-1.4v-5.3C4,21.7,4.7,21,5.4,21h4.3c0.4-1.3,0.9-2.7,1.6-3.9l-3-3
	c-0.6-0.6-0.6-1.4,0-2l3.7-3.7c0.6-0.6,1.4-0.6,2,0l3,3c0.2-0.2,0.5-0.4,0.8-0.5c0.9-0.6,2-1,3.1-1.2V5.4C21,4.6,21.7,4,22.4,4h5.3
	c0.8,0,1.4,0.6,1.4,1.4v4.3c1,0.2,1.8,0.6,2.7,1c0.4,0.2,0.9,0.4,1.2,0.7l3.1-3c0.6-0.6,1.4-0.6,2,0l3.7,3.7c0.6,0.6,0.6,1.4,0,2
	l-3,3c0.7,1.1,1.2,2.5,1.6,3.9h4.2C45.4,21,46.1,21.6,46,22.4z"/>
<path d="M44.7,21h-4.2c-0.4-1.4-1-2.8-1.6-3.9l3-3c0.6-0.6,0.6-1.4,0-2l-3.7-3.7c-0.6-0.6-1.4-0.6-2,0l-3.1,3
	c-0.4-0.3-0.9-0.5-1.2-0.7c-0.9-0.4-1.7-0.8-2.7-1V5.4c0-0.9-0.7-1.4-1.4-1.4h-5.3C21.7,4,21,4.6,21,5.4v4.2
	c-1.1,0.3-2.2,0.7-3.1,1.2c-0.3,0.1-0.6,0.3-0.8,0.5l-3-3c-0.6-0.6-1.4-0.6-2,0l-3.7,3.7c-0.6,0.6-0.6,1.4,0,2l3,3
	c-0.8,1.2-1.2,2.6-1.6,3.9H5.4C4.7,21,4,21.7,4,22.4v5.3c0,0.8,0.7,1.4,1.4,1.4h4.2c0.4,1.4,1,2.8,1.6,3.9l-3,2.9
	c-0.6,0.6-0.6,1.4,0,2l3.7,3.7c0.6,0.6,1.4,0.6,2,0l3-3c1.2,0.8,2.6,1.2,3.9,1.6v4.2c0,0.8,0.7,1.4,1.4,1.4h5.3
	c0.8,0,1.4-0.7,1.4-1.4v-4.2c1.4-0.4,2.8-1,3.9-1.6l3,3c0.6,0.6,1.4,0.6,2,0l3.7-3.7c0.6-0.6,0.6-1.4,0-2l-3-2.9
	c0.8-1.2,1.2-2.6,1.6-3.9h4.2c0.8,0,1.4-0.7,1.4-1.4v-5.3C46.1,21.6,45.4,21,44.7,21z M25.1,30.1c-2.8,0-5.1-2.3-5.1-5.1
	s2.3-5.1,5.1-5.1c2.8,0,5.1,2.3,5.1,5.1S27.9,30.1,25.1,30.1z"/>
</svg>
