<?xml version="1.0" encoding="utf-8"?>
<!-- Generator: Adobe Illustrator 23.1.0, SVG Export Plug-In . SVG Version: 6.00 Build 0)  -->
<svg version="1.1" id="Layer_1" xmlns="http://www.w3.org/2000/svg" xmlns:xlink="http://www.w3.org/1999/xlink" x="0px" y="0px"
	 viewBox="0 0 500 500" style="enable-background:new 0 0 500 500;" xml:space="preserve">
<style type="text/css">
	.st0{fill:none;stroke:#000000;stroke-width:4;}
</style>
<g>
	<circle class="st0" cx="250" cy="218.6" r="178.7"/>
	<path class="st0" d="M250,40c11.9,119.1,107.2,119.1,0,357.3"/>
	<g>
		<path d="M252.4,40.2c-0.5,15.8-3.2,31.6-7.5,46.9c-4.3,15.4-10.5,30-16.6,44.3c-3.1,7.1-6,14.3-8.7,21.3
			c-1.3,3.6-2.6,7.1-3.7,10.7c-0.6,1.8-1.2,3.6-1.7,5.4l-1.5,5.4c-0.6,1.8-0.8,3.7-1.3,5.5c-0.4,1.8-1,3.6-1.2,5.5
			c-0.6,3.7-1.4,7.3-1.8,11.1l-0.7,5.6l-0.4,5.6c-0.4,3.7-0.2,7.5-0.4,11.2c0,7.5,0.5,15,1.2,22.5l0.2,2.9l0.4,2.9l0.7,5.6
			c0.5,3.8,1.2,7.5,1.9,11.2l1,5.6c0.4,1.9,0.8,3.7,1.2,5.6l1.2,5.6c0.5,1.9,0.7,3.7,1.3,5.6c1.9,7.4,3.7,14.9,6,22.3
			c8.6,29.7,19.2,58.7,30,88l-4.3,1.9c-14.8-27.6-27.5-56.3-37.6-86.1c-5.2-14.9-9.4-30.1-12.6-45.7c-0.8-3.9-1.7-7.7-2.1-11.8l-1-6
			l-0.5-3l-0.4-3c-0.8-8-1.4-16.1-1.4-24.1c0-16.2,2.1-32.5,6.7-48.1l1.8-5.8c0.6-1.9,1.3-3.8,2-5.7c1.3-3.8,2.9-7.5,4.3-11.2
			c3.1-7.4,6.4-14.5,9.9-21.6c3.3-7,6.8-14.1,10-21c0.8-1.8,1.7-3.5,2.4-5.2l2.3-5.2l2.1-5.4l1.1-2.6l1-2.7
			c5.4-14.3,9.3-29.2,11.9-44.3L252.4,40.2z"/>
	</g>
	<path class="st0" d="M71.3,218.6c119.1,11.9,119.1,107.2,357.3,0"/>
	<path class="st0" d="M71.3,218.6c119.1-11.9,119.1-107.2,357.3,0"/>
	<g>
		<path d="M119.5,453.4c6.3-18.1,12.6-36.3,19.5-54.3c3.5-9.1,7-18,10.7-27c3.8-8.9,7.7-17.9,12.1-26.6c4.4-8.7,9.2-17.4,14.5-25.6
			c5.5-8.2,11.7-16.2,18.9-23.2c3.7-3.5,7.5-6.7,11.9-9.4c2-1.4,4.4-2.6,6.6-3.8c2.3-1.1,4.5-2.3,6.9-3.1c9.4-3.7,19.5-4.8,29.4-4.5
			v4.8c-9.3,0.5-18.5,2.4-26.6,6.3c-2,0.8-3.9,2.1-6,3.2c-1.9,1.3-3.8,2.5-5.5,3.9c-3.6,2.7-6.8,6-9.9,9.3
			c-12,13.7-20.2,30.7-27.2,48c-3.5,8.7-6.6,17.6-9.5,26.6s-5.7,18-8.3,27.2c-5.2,18.2-10,36.7-14.8,55.1L119.5,453.4z"/>
	</g>
	<path class="st0" d="M71.3,397.3C130.9,278.2,190.4,218.6,250,218.6"/>
	<path class="st0" d="M428.7,397.3C369.1,278.2,309.6,218.6,250,218.6"/>
	<g>
		<path d="M357.7,460.3c-4.8-18.5-9.5-36.9-14.8-55.1c-2.6-9.2-5.4-18.2-8.3-27.2c-3-8.9-6.1-17.9-9.5-26.6
			c-6.9-17.4-15.1-34.3-27.2-48c-3.1-3.3-6.3-6.6-9.9-9.3c-1.8-1.4-3.7-2.6-5.5-3.9c-2-1.1-3.8-2.4-6-3.2c-8.1-4-17.3-5.8-26.6-6.3
			v-4.8c9.8-0.4,19.9,0.8,29.4,4.5c2.4,0.8,4.6,2,6.9,3.1c2.1,1.3,4.5,2.4,6.6,3.8c4.3,2.7,8.2,6,11.9,9.4
			c7.3,7,13.5,14.9,18.9,23.2c5.4,8.3,10.1,16.9,14.5,25.6s8.3,17.6,12.1,26.6c3.8,8.9,7.4,18,10.7,27c6.9,18.1,13.2,36.2,19.5,54.3
			L357.7,460.3z"/>
	</g>
</g>
</svg>
