<?xml version="1.0" encoding="utf-8"?>
<!-- Generator: Adobe Illustrator 23.1.0, SVG Export Plug-In . SVG Version: 6.00 Build 0)  -->
<svg version="1.1" id="Layer_1" xmlns="http://www.w3.org/2000/svg" xmlns:xlink="http://www.w3.org/1999/xlink" x="0px" y="0px"
	 viewBox="0 0 500 500" style="enable-background:new 0 0 500 500;" xml:space="preserve">
<style type="text/css">
	.st0{fill:none;stroke:#000000;stroke-width:6;stroke-linecap:round;stroke-linejoin:round;}
	.st1{fill:#B2B2B2;stroke:#000000;stroke-width:6;stroke-linecap:round;stroke-linejoin:round;}
	.st2{fill:#939393;stroke:#000000;stroke-width:6;stroke-linecap:round;stroke-linejoin:round;}
	.st3{fill:none;stroke:#000000;stroke-width:3;stroke-linecap:round;stroke-linejoin:round;}
	.st4{fill:none;stroke:#000000;stroke-width:8;stroke-linecap:round;stroke-linejoin:round;}
</style>
<g>
	<g>
		<path class="st0" d="M361.7,377.6c0,0-10.9,20.1-10.9,27.5c0,7.4,10.9,27.5,10.9,27.5H258.8c0,0,9.7-20.2,9.7-27.5
			c0-7.3-9.7-27.5-9.7-27.5"/>
		<path class="st1" d="M416.3,261.4c0.1-4.9-0.6-17.3-6.7-35.5c-8.3-25.1-18.3-29.5-19.3-29.9c16.9,1.8,23.9,4.1,26.8,5.5
			c1.4,8,2.1,16.6,2.1,26C419.2,238.6,418.2,250,416.3,261.4z"/>
		<path class="st2" d="M417.1,201.5c-2.9-1.5-9.9-3.7-26.8-5.5c-15.7-1.9-40.6-3.4-80.1-3.4c-39.1,0-64,1.5-79.7,3.3
			c-25.1,2.9-27.2,6.8-27.4,7.2c3.8-24.1,13.3-42.4,26.8-55.6c19.9-19.5,48.5-28,80.3-28C363.1,119.5,407.2,143.2,417.1,201.5z"/>
		<path class="st1" d="M230.5,196c0,0-10.6,3.6-19.4,30c-7.7,23-6.7,36.6-6.5,37.8c-2.1-12.2-3.3-24.4-3.3-36.2
			c0-8.7,0.6-16.8,1.8-24.3c0,0,0,0,0,0C203.3,202.8,205.4,198.9,230.5,196z"/>
		<path class="st0" d="M416.3,261.4c-11.3,68.7-54.5,138.4-106,138.4c-51,0-93.7-68.1-105.6-136c0,0,0,0,0-0.1
			c-0.1-1.2-1.1-14.8,6.5-37.8c8.8-26.4,19.4-30,19.4-30c15.8-1.8,40.6-3.3,79.7-3.3c39.5,0,64.4,1.5,80.1,3.4
			c1,0.4,10.9,4.9,19.3,29.9C415.7,244.2,416.3,256.5,416.3,261.4z"/>
		<path class="st3" d="M204.6,263.7C204.6,263.8,204.6,263.8,204.6,263.7"/>
		<path class="st3" d="M416.3,261.4c0,1.6-0.1,2.4-0.1,2.4"/>
		<path class="st3" d="M390.3,196C390.3,196,390.2,196,390.3,196"/>
	</g>
	<g>
		<circle class="st4" cx="107.5" cy="154.3" r="25.7"/>
		<circle class="st4" cx="106.6" cy="93.1" r="25.7"/>
		<line class="st0" x1="134.1" y1="148.2" x2="250.8" y2="121.2"/>
		<line class="st0" x1="128.1" y1="107.2" x2="230.4" y2="169.6"/>
	</g>
</g>
</svg>
