<?xml version="1.0" encoding="utf-8"?>
<!-- Generator: Adobe Illustrator 23.1.0, SVG Export Plug-In . SVG Version: 6.00 Build 0)  -->
<svg version="1.1" id="Layer_1" xmlns="http://www.w3.org/2000/svg" xmlns:xlink="http://www.w3.org/1999/xlink" x="0px" y="0px"
	 viewBox="0 0 40 40" style="enable-background:new 0 0 40 40;" xml:space="preserve">
<style type="text/css">
	.st0{fill:#A8A8A8;}
</style>
<path class="st0" d="M32,13H8c-0.6,0-1-0.4-1-1v0c0-0.6,0.4-1,1-1h24c0.6,0,1,0.4,1,1v0C33,12.6,32.6,13,32,13z"/>
<path class="st0" d="M32,29H8c-0.6,0-1-0.4-1-1v0c0-0.6,0.4-1,1-1h24c0.6,0,1,0.4,1,1v0C33,28.6,32.6,29,32,29z"/>
<path class="st0" d="M29,21H11c-0.6,0-1-0.4-1-1v0c0-0.6,0.4-1,1-1h18c0.6,0,1,0.4,1,1v0C30,20.6,29.6,21,29,21z"/>
</svg>
